<svg width="140" height="47" xmlns="http://www.w3.org/2000/svg" xmlns:xlink="http://www.w3.org/1999/xlink" xml:space="preserve" overflow="hidden"><g><path d="M40.3283 3.79461 40.3283 24.0958C40.3283 25.2552 40.3072 26.4147 40.2439 27.5742 40.2018 28.7336 40.2229 29.8509 40.3283 30.905 40.4969 32.5915 40.9396 34.0882 41.6564 35.3742 42.3521 36.6601 43.1953 37.7774 44.144 38.7261 45.0926 39.6747 46.2099 40.518 47.4959 41.2348 48.7818 41.9515 50.2786 42.3942 51.9651 42.5207 54.4948 42.7315 56.6872 42.4364 58.5213 41.6564 60.3554 40.8553 61.8732 39.8223 63.0748 38.5574 64.0867 37.4612 64.93 36.2385 65.5624 34.8472 66.1949 33.4769 66.5743 31.8958 66.6797 30.0828 65.9419 30.0196 65.1408 29.9985 64.2765 30.0407 63.4121 30.0828 62.5689 30.0828 61.7678 30.0407 61.5992 31.1369 61.2619 32.1488 60.7981 33.0974 60.3132 34.0461 59.7019 34.8682 58.9429 35.5639 58.184 36.2596 57.3197 36.7866 56.3289 37.145 55.3381 37.5245 54.2629 37.672 53.1034 37.5877 50.911 37.4191 49.1191 36.618 47.6856 35.1845 46.2521 33.7509 45.451 31.9801 45.2823 29.872 45.1769 28.565 45.1558 27.1736 45.2191 25.6769 45.2823 24.1801 45.3245 22.6623 45.3245 21.1022L52.471 21.1022 52.471 16.2114C51.2694 16.1693 50.0467 16.1693 48.824 16.2114 47.5802 16.2536 46.3996 16.2114 45.2823 16.106L45.2823 3.52055 40.4126 3.52055C40.2861 3.56272 40.265 3.64704 40.3283 3.79461L40.3283 3.79461 40.3283 3.79461Z" fill="#62B646" transform="matrix(1 0 0 1.00412 0 0.0564586)"/><path d="M131.947 35.9855C130.471 34.7839 129.523 33.245 129.143 31.3899 128.975 30.4834 128.932 29.619 129.017 28.8179 129.101 28.0169 129.291 27.279 129.544 26.6044 129.818 25.9088 130.155 25.2763 130.577 24.7071 130.998 24.1168 131.462 23.632 131.947 23.2104 132.643 22.6201 133.444 22.1352 134.35 21.819 135.257 21.4817 136.248 21.292 137.344 21.2709 137.407 20.4909 137.449 19.6898 137.428 18.8466 137.407 18.0033 137.407 17.1811 137.407 16.359 135.952 16.3168 134.666 16.4644 133.528 16.7806 132.39 17.0968 131.336 17.5395 130.408 18.1298 129.48 18.7201 128.637 19.3736 127.899 20.1325 127.162 20.8914 126.487 21.6714 125.897 22.4936 125.264 21.6925 124.59 20.9125 123.852 20.1747 123.135 19.4368 122.334 18.7833 121.449 18.2141 120.563 17.6449 119.572 17.2022 118.434 16.8649 117.296 16.5276 116.031 16.3379 114.618 16.3168 114.555 17.0968 114.513 17.919 114.534 18.7833 114.555 19.6476 114.555 20.4909 114.555 21.292 116.663 21.4606 118.455 22.1563 119.889 23.3579 121.343 24.5596 122.229 26.0985 122.587 27.9536 122.65 28.2698 122.713 28.6282 122.777 29.0077 122.84 29.3871 122.819 29.7877 122.756 30.1671 122.587 32.465 121.744 34.278 120.268 35.6482 118.792 36.9974 116.895 37.7985 114.555 38.0093L114.555 42.9845C114.808 42.9845 115.04 42.9845 115.272 43.0056 115.504 43.0267 115.757 43.0056 116.031 42.9845 118.033 42.7737 119.804 42.1834 121.343 41.2137 122.882 40.2439 124.105 39.1477 125.011 37.9039 125.159 37.7353 125.285 37.5245 125.391 37.2926 125.496 37.0607 125.665 36.892 125.918 36.7866 126.445 37.5666 127.035 38.3045 127.689 39.0002 128.342 39.6958 129.08 40.3283 129.881 40.8553 130.83 41.4877 131.926 42.0148 133.191 42.4364 134.435 42.858 135.847 43.0267 137.386 42.9212 137.386 42.1202 137.386 41.2769 137.407 40.4337 137.428 39.5904 137.407 38.7683 137.323 38.0093 135.215 37.8196 133.423 37.1661 131.947 35.9855Z" fill="#046898" transform="matrix(1 0 0 1.00412 0 0.0564586)"/><path d="M110.065 20.5331C109.474 19.9428 108.779 19.3736 107.999 18.8466 107.219 18.3195 106.376 17.8768 105.469 17.5184 104.563 17.1601 103.551 16.9282 102.454 16.7806 101.358 16.633 100.22 16.633 99.0182 16.7806 98.5334 16.8438 98.0907 16.9282 97.6901 17.0125 97.3106 17.0968 96.9312 17.2022 96.5728 17.3076 95.4766 17.6871 94.5069 18.172 93.6636 18.699 92.8204 19.2471 92.0193 19.8795 91.2814 20.6385 90.3749 21.5449 89.5739 22.6412 88.8782 23.885 88.1825 25.1287 87.7609 26.6044 87.5922 28.2909 87.4447 29.5558 87.4657 30.7363 87.6133 31.8115 87.782 32.8866 88.0349 33.8774 88.4144 34.7628 88.7939 35.6693 89.2155 36.4704 89.7425 37.2293 90.2485 37.9672 90.7966 38.6207 91.3447 39.1899 91.935 39.7802 92.6095 40.3493 93.3474 40.8553 94.0852 41.3612 94.9074 41.8039 95.835 42.1834 96.7415 42.5629 97.7323 42.8158 98.7863 42.9845 99.8404 43.1531 100.979 43.1531 102.223 43.0056 103.888 42.8369 105.364 42.3942 106.671 41.7196 107.978 41.0239 109.095 40.2018 110.065 39.211 111.013 38.2623 111.836 37.1239 112.552 35.8169 113.248 34.5099 113.691 33.0553 113.88 31.432 114.133 28.9234 113.859 26.7942 113.058 25.0023 112.257 23.2314 111.266 21.7347 110.065 20.5331ZM108.947 30.1671C108.884 31.3055 108.631 32.3385 108.189 33.2872 107.746 34.2358 107.177 35.058 106.46 35.7537 105.764 36.4493 104.942 36.9974 104.036 37.4191 103.108 37.8407 102.138 38.0937 101.084 38.1569 100.705 38.1569 100.325 38.1358 99.9669 38.1147 99.6085 38.0726 99.2712 38.0304 98.955 37.9461 97.1631 37.5666 95.6663 36.6812 94.4647 35.3109 93.2631 33.9407 92.5885 32.2542 92.462 30.2304 92.4198 29.872 92.4409 29.5347 92.4831 29.1763 92.5463 28.8179 92.5885 28.4807 92.6728 28.1223 92.8836 27.1736 93.2209 26.3515 93.6847 25.6347 94.1485 24.939 94.6755 24.3066 95.2658 23.7796 95.8982 23.1893 96.5939 22.7255 97.3528 22.4093 98.1117 22.0931 99.0604 21.8612 100.178 21.7136 101.337 21.566 102.433 21.7136 103.487 22.1352 104.52 22.5568 105.406 23.0839 106.101 23.7163 106.797 24.3487 107.451 25.1498 107.999 26.0985 108.568 27.0471 108.884 28.1855 108.947 29.5347L108.947 30.1671Z" fill="#046898" transform="matrix(1 0 0 1.00412 0 0.0564586)"/><path d="M84.0928 21.5239C83.0387 20.1958 81.7738 19.1206 80.2771 18.2985 78.8014 17.4763 77.1992 16.9914 75.4706 16.8438 73.5943 16.6752 71.9922 16.7806 70.643 17.1601 69.2938 17.5395 68.0922 18.0666 67.0803 18.699 66.8062 18.8676 66.5322 19.0574 66.3213 19.226 66.0894 19.3947 65.8786 19.4579 65.6678 19.3947L65.6678 4.11083 60.9035 4.11083C60.7981 4.17407 60.7348 4.27948 60.7348 4.38488L60.7348 24.4541C60.7348 25.5925 60.7137 26.7098 60.6927 27.8061 60.6505 28.9234 60.6716 30.0407 60.7348 31.158 60.7559 31.3266 60.777 31.4742 60.7981 31.6428 60.9878 31.0947 61.1143 30.5466 61.2197 29.9774L61.304 29.5136 61.7678 29.5347C62.1684 29.5558 62.5689 29.5558 62.9694 29.5558 63.37 29.5558 63.7916 29.5558 64.2132 29.5347 64.5084 29.5136 64.8035 29.5136 65.0776 29.5136 65.2673 29.5136 65.457 29.5136 65.6467 29.5347 65.6678 29.2817 65.6889 29.0498 65.7311 28.7758 65.7943 28.3752 65.8997 27.9747 66.0262 27.5952 66.1527 27.2158 66.2792 26.8574 66.4267 26.5412 66.5743 26.225 66.7008 25.9509 66.8062 25.7401 67.3965 24.7282 68.2608 23.8639 69.3359 23.1471 70.4322 22.4514 71.6549 22.0087 73.0462 21.819 74.6695 21.6504 76.1241 21.8822 77.41 22.5147 78.696 23.1471 79.7079 23.9693 80.4457 24.939 80.8252 25.4239 81.1836 26.0985 81.4998 26.9417 81.816 27.785 82.0057 28.5861 82.09 29.3239 82.1954 30.6309 82.0268 31.8115 81.6052 32.8866 81.1836 33.9618 80.5933 34.8893 79.8344 35.6904 79.0754 36.4915 78.19 37.1028 77.1571 37.5456 76.1241 37.9883 75.07 38.1991 73.9738 38.1991 73.0251 38.1991 72.0976 38.0304 71.2332 37.6931 70.3478 37.3558 69.6311 36.9974 69.0619 36.618 68.1554 35.9434 67.3543 35.058 66.6586 33.9196 66.6165 33.8353 66.5743 33.772 66.5322 33.6877 66.3846 34.1726 66.2159 34.6364 66.0051 35.0791 65.4359 36.3228 64.6981 37.4401 63.8338 38.452 64.0657 38.7261 64.3186 39.0002 64.5716 39.232 65.7311 40.4337 67.2067 41.4245 68.9776 42.2256 70.7484 43.0267 72.8354 43.3007 75.2387 43.0899 76.7565 42.9423 78.19 42.5629 79.5814 41.9094 80.9517 41.2558 82.1744 40.4126 83.2284 39.3796 84.2825 38.3466 85.1468 37.1661 85.8003 35.838 86.4538 34.5099 86.8544 33.1185 86.9809 31.6428 87.1495 29.7034 86.9809 27.8693 86.4538 26.1196 85.9268 24.3698 85.1679 22.852 84.0928 21.5239Z" fill="#046898" transform="matrix(1 0 0 1.00412 0 0.0564586)"/><path d="M18.4249 22.8309C18.4249 21.6925 18.4671 20.5331 18.4671 19.3525 18.3406 19.3525 18.2141 19.3525 18.0666 19.3736L18.0666 19.3736C17.2444 19.479 16.5066 19.6476 15.8741 19.8795 15.2628 20.1114 14.6092 20.4487 13.9557 20.8704 13.9557 20.8704 13.9557 20.8704 13.9557 20.8704 13.7871 20.9758 13.6395 21.1022 13.4709 21.2076L13.4287 27.0893C13.4287 27.6796 13.4709 28.312 13.4498 28.9444 13.4076 29.5769 13.4287 30.1882 13.513 30.7996 13.6395 31.8958 13.8925 32.9288 14.2719 33.8985 15.1152 33.5401 15.9584 33.0553 16.7595 32.465 17.392 32.0012 18.0033 31.4531 18.5725 30.8417 18.4882 30.4201 18.4249 29.9774 18.4039 29.5136 18.3406 27.2579 18.4039 25.0655 18.4249 22.8309Z" fill="#EE2A65" transform="matrix(1 0 0 1.00412 0 0.0564586)"/><path d="M15.9795 16.0006 13.5552 16.0006C13.513 16.0006 13.4919 16.0638 13.4919 16.1693L13.4919 17.2444C13.8714 17.0336 14.2298 16.8228 14.5882 16.633 15.0309 16.4011 15.4947 16.1903 15.9795 16.0006Z" fill="#EE2A65" transform="matrix(1 0 0 1.00412 0 0.0564586)"/><path d="M34.9526 16.0006 34.9526 22.8098C34.9526 23.9482 34.9736 25.0655 35.0369 26.225 35.1001 27.3633 35.058 28.5017 34.9526 29.6401 34.8472 30.7785 34.5731 31.7904 34.1304 32.739 33.6877 33.6666 33.0974 34.4888 32.3807 35.1634 31.6639 35.8591 30.8417 36.4072 29.9142 36.8077 28.9866 37.2083 28.0169 37.4401 26.9628 37.4612L26.3725 37.4612C24.5385 37.3558 22.9785 36.7655 21.6714 35.7747 20.786 36.7023 19.8585 37.5456 18.9098 38.2834L18.9098 38.2834C18.5725 38.5574 18.2141 38.8104 17.8557 39.0634 18.7201 39.8434 19.6898 40.518 20.7649 41.0872 22.072 41.7829 23.5266 42.2045 25.1498 42.3731 26.2671 42.4785 27.3001 42.4785 28.2066 42.3521 29.1131 42.2256 29.9774 42.0358 30.7785 41.7618 31.5796 41.4877 32.2963 41.1715 32.9709 40.8131 33.6455 40.4337 34.278 40.0753 34.8682 39.6747 34.9315 40.0542 34.9526 40.4969 34.9315 40.9607 34.8893 41.4456 34.8893 41.9094 34.9315 42.3521L39.8434 42.3521 39.8434 16.0006 34.9526 16.0006Z" fill="#EE2A65" transform="matrix(1 0 0 1.00412 0 0.0564586)"/><path d="M27.4055 21.8612C27.2158 20.259 26.7731 18.973 26.0985 18.0244 25.7823 17.5606 25.3817 17.139 24.9179 16.7595 24.4752 16.3801 23.9482 16.0849 23.3579 15.8741 22.7887 15.6633 22.1141 15.5157 21.3763 15.4525 20.6385 15.3892 19.8585 15.4314 18.9941 15.5579 18.6357 15.6211 18.3195 15.6844 18.0244 15.7476 17.7293 15.8109 17.4552 15.8952 17.1811 15.9584 16.3168 16.2325 15.5157 16.5698 14.7779 16.9493 14.019 17.3287 13.2601 17.7714 12.5011 18.2985 11.5525 18.9309 10.5827 19.7109 9.59193 20.5963 8.58003 21.5239 7.58922 22.6201 6.61948 23.9693 5.86056 25.0023 5.22813 25.9931 4.72218 26.9417 4.19515 27.9115 3.79461 28.8601 3.47839 29.7455 3.16217 30.6731 2.93028 31.5374 2.80379 32.3596 2.65623 33.2028 2.59298 34.0039 2.61406 34.7207 2.63515 35.5007 2.71947 36.2596 2.9092 36.9974 3.09893 37.7564 3.41515 38.4731 3.85785 39.1477 4.32164 39.8434 4.93299 40.4126 5.69191 40.8764 6.493 41.3612 7.48381 41.6353 8.70652 41.7407 10.3719 41.8883 12.0795 41.6142 13.8082 40.8975 15.5368 40.1807 17.2022 39.1899 18.7201 37.9672 20.2168 36.8077 21.6293 35.3953 22.9785 33.7509 24.2855 32.1699 25.3185 30.4201 26.0985 28.5228 27.1947 25.7823 27.6163 23.5898 27.4055 21.8612ZM22.072 26.0985 21.819 26.752C21.292 27.9536 20.6174 29.0709 19.7741 30.0828 18.9098 31.1369 17.9822 32.0434 16.9914 32.7812 15.9795 33.5191 14.9465 34.0882 13.8714 34.4677 12.8173 34.8472 11.8055 34.9947 10.8568 34.9315 10.5195 34.8682 10.2244 34.7839 9.95031 34.6996 9.67625 34.5942 9.44436 34.4888 9.21247 34.3623 8.01084 33.6455 7.42057 32.465 7.35733 30.8417 7.29408 29.3239 7.80003 27.6374 8.79084 25.8033 8.95949 25.4871 9.14923 25.192 9.36004 24.8758 9.57085 24.5806 9.80274 24.2855 10.0136 23.9904 10.6249 23.2104 11.2363 22.5358 11.8687 21.9877 12.5011 21.4395 13.1336 20.9758 13.766 20.5752 14.4617 20.1325 15.1152 19.7741 15.7687 19.5422 16.4222 19.3103 17.1811 19.1206 18.0455 19.0152 18.952 18.9098 19.7109 19.0152 20.3433 19.3314 20.9968 19.6687 21.4817 20.0903 21.8401 20.6174 22.1985 21.1655 22.4304 21.8612 22.5779 22.7255 22.6623 23.632 22.5147 24.7493 22.072 26.0985Z" fill="#DEAD26" transform="matrix(1 0 0 1.00412 0 0.0564586)"/></g></svg>